<?xml version='1.0' encoding='utf-8'?>
<svg xmlns="http://www.w3.org/2000/svg" version="1.0" width="1603.000000pt" height="1603.000000pt" viewBox="0 0 1603.000000 1603.000000" preserveAspectRatio="xMidYMid meet"> <metadata> Created by potrace 1.13, written by Peter Selinger 2001-2015 </metadata> <g transform="translate(0.000000,1603.000000) scale(0.100000,-0.100000)" fill="#000000" stroke="none"> <path d="M4632 11767 c-52 -55 -55 -239 -7 -366 16 -41 44 -94 63 -119 41 -54 56 -97 38 -111 -15 -12 -159 36 -241 82 -11 6 -42 22 -70 35 -49 23 -217 133 -243 159 -7 7 -17 13 -22 13 -5 0 -34 23 -64 51 -44 40 -56 57 -56 81 0 36 -24 83 -46 92 -21 8 -44 -10 -44 -35 0 -10 -4 -21 -10 -24 -6 -4 -10 -61 -10 -138 0 -110 4 -139 20 -176 11 -24 20 -49 20 -57 0 -8 5 -14 12 -14 6 0 9 -3 5 -6 -3 -3 3 -16 15 -28 11 -11 32 -39 45 -61 33 -52 65 -79 138 -119 52 -28 64 -41 90 -92 59 -116 109 -177 170 -205 46 -22 45 -62 -5 -157 l-40 -79 1 -134 c1 -128 0 -137 -30 -211 -17 -42 -31 -82 -31 -88 0 -7 -8 -24 -18 -38 -10 -15 -29 -47 -41 -72 -50 -99 -39 -89 -151 -139 -43 -20 -224 -129 -301 -182 -74 -50 -222 -109 -277 -109 -17 0 -43 -5 -59 -11 -15 -6 -59 -13 -98 -15 -46 -3 -78 -11 -95 -23 -14 -10 -61 -37 -105 -61 -93 -50 -134 -86 -135 -116 0 -12 -18 -38 -41 -59 -35 -31 -46 -36 -73 -31 -17 3 -64 10 -105 16 -50 6 -86 17 -112 35 -21 14 -44 25 -51 26 -13 0 -25 8 -105 61 -55 36 -225 206 -296 296 -113 141 -276 407 -351 572 -21 47 -53 117 -71 155 -30 64 -62 143 -126 313 -26 68 -52 82 -69 37 -27 -70 -18 -668 10 -685 6 -4 15 -44 20 -90 5 -46 16 -106 24 -134 8 -28 17 -77 21 -110 9 -82 15 -110 23 -116 4 -3 18 -39 32 -80 13 -41 27 -79 32 -84 4 -6 8 -23 8 -38 0 -15 5 -28 10 -28 6 0 10 -6 10 -13 0 -7 9 -32 20 -55 11 -22 20 -45 20 -50 0 -5 6 -22 14 -38 8 -16 24 -51 36 -79 12 -27 33 -74 46 -103 14 -29 22 -57 19 -62 -3 -4 -2 -10 3 -12 11 -4 72 -124 72 -142 0 -9 9 -20 20 -26 11 -6 29 -28 39 -49 11 -20 35 -56 54 -79 20 -23 41 -55 49 -72 7 -16 17 -30 21 -30 5 0 5 -4 2 -10 -3 -5 -1 -10 4 -10 6 0 11 -5 11 -11 0 -6 12 -26 26 -44 23 -30 26 -47 33 -152 4 -65 3 -133 -2 -151 -13 -51 -12 -213 1 -337 7 -60 13 -145 14 -187 1 -43 5 -78 10 -78 4 0 8 -6 8 -13 0 -8 12 -20 28 -28 34 -17 73 -56 96 -95 23 -39 69 -68 156 -97 49 -17 77 -32 87 -48 8 -13 36 -40 61 -59 26 -19 65 -53 87 -76 22 -22 63 -54 90 -70 45 -26 59 -29 143 -30 92 -1 93 -1 130 -36 39 -38 103 -65 124 -52 6 4 64 8 127 9 126 1 176 16 235 69 17 15 41 29 55 32 14 3 53 18 86 34 42 20 81 31 130 35 170 13 282 24 310 30 244 53 341 91 418 164 31 30 73 60 93 67 20 7 53 26 73 43 59 50 149 111 164 111 19 0 54 19 99 53 47 36 111 36 116 0 2 -12 17 -36 33 -54 16 -17 29 -36 29 -43 0 -6 27 -41 60 -76 45 -50 60 -72 60 -95 0 -17 -5 -36 -10 -41 -7 -7 -12 -115 -15 -289 -3 -230 -1 -282 11 -299 8 -11 14 -35 14 -52 0 -17 4 -44 9 -60 5 -16 15 -49 22 -74 7 -25 16 -49 19 -55 4 -5 10 -25 14 -44 5 -30 43 -128 67 -173 5 -10 9 -24 9 -32 0 -8 3 -16 8 -18 4 -1 25 -39 48 -83 56 -109 111 -193 164 -249 25 -26 46 -51 48 -56 2 -5 19 -25 38 -45 41 -44 102 -133 133 -192 19 -39 21 -58 21 -230 0 -103 5 -262 11 -352 11 -172 5 -250 -28 -336 -19 -52 -135 -204 -213 -280 -105 -103 -244 -246 -259 -268 -8 -11 -18 -54 -22 -96 -5 -42 -10 -87 -11 -101 -3 -22 2 -25 56 -37 32 -8 142 -20 245 -28 102 -8 220 -20 261 -26 139 -20 609 2 695 33 42 16 75 48 75 73 0 34 -46 161 -81 222 -38 66 -58 178 -59 326 0 95 1 99 30 130 16 17 35 44 41 59 6 16 15 28 20 28 5 0 9 6 9 14 0 8 14 41 30 73 17 31 30 65 30 74 0 15 13 45 51 121 5 10 9 27 9 37 0 11 4 22 9 25 5 3 11 23 14 43 3 21 11 61 17 88 11 47 23 230 36 545 3 74 9 139 15 145 5 5 9 44 9 86 l0 78 58 11 c31 6 67 14 80 17 12 3 32 19 44 37 44 65 71 70 149 30 56 -28 149 -48 273 -59 79 -8 81 -8 126 -55 50 -52 134 -100 174 -100 13 0 38 -12 55 -26 l31 -26 0 -148 c0 -82 -5 -161 -11 -177 -18 -48 -14 -357 6 -433 9 -36 19 -114 21 -174 1 -60 7 -112 12 -115 15 -9 25 -348 13 -406 -6 -27 -15 -73 -20 -102 -11 -57 -46 -120 -74 -129 -9 -3 -24 -18 -32 -33 -8 -16 -21 -31 -30 -34 -8 -4 -15 -13 -15 -22 0 -8 -4 -15 -8 -15 -5 0 -27 -16 -50 -36 -36 -30 -42 -41 -42 -75 0 -26 7 -46 20 -59 11 -11 17 -20 13 -20 -15 0 65 -52 122 -81 53 -26 158 -51 275 -65 19 -3 75 -12 123 -21 74 -13 142 -15 426 -10 214 3 347 9 359 16 12 6 34 11 50 11 38 0 47 12 61 81 10 50 9 62 -9 111 -11 30 -44 83 -73 119 -61 75 -94 125 -126 194 -65 138 -76 184 -76 315 1 159 14 393 26 465 12 68 69 244 105 323 13 29 24 58 24 65 0 16 108 229 148 291 22 34 32 62 32 88 0 30 8 47 38 81 45 50 56 74 71 151 6 32 12 60 13 61 6 6 252 25 322 25 83 0 244 14 346 31 175 28 201 35 415 99 56 16 106 30 113 30 6 0 14 -17 17 -37 4 -21 10 -58 16 -83 5 -25 21 -106 35 -180 14 -74 29 -151 33 -170 10 -49 66 -165 90 -189 12 -12 19 -21 16 -21 -3 0 21 -39 53 -87 72 -108 81 -134 89 -249 5 -75 2 -109 -17 -190 -13 -55 -27 -104 -32 -110 -4 -6 -6 -18 -3 -26 9 -23 -54 -159 -89 -193 -27 -27 -97 -76 -250 -177 -51 -34 -101 -137 -84 -174 21 -46 194 -95 453 -128 22 -3 67 -10 100 -16 172 -31 317 -50 391 -50 78 0 85 2 109 27 49 54 53 73 53 293 0 113 5 234 11 270 14 76 41 160 53 160 4 0 8 7 8 15 0 8 5 24 10 35 6 11 15 29 20 40 6 11 10 25 10 30 0 12 60 142 69 150 6 5 14 18 53 89 11 20 24 40 29 46 5 5 9 21 9 36 0 15 4 31 10 34 13 8 13 132 0 140 -5 3 -10 17 -10 31 0 13 -4 32 -9 42 -24 45 -51 114 -51 130 0 10 -4 22 -8 27 -5 6 -15 30 -22 55 -8 25 -17 50 -21 55 -4 6 -17 37 -30 70 -12 33 -25 65 -29 70 -6 10 -24 68 -41 138 -5 20 -13 54 -18 75 -6 20 -15 71 -20 112 -6 41 -13 93 -16 115 -3 22 -8 79 -11 126 -7 99 -14 87 129 200 43 34 102 86 130 115 56 58 71 64 96 36 23 -26 149 -122 160 -122 12 0 124 -122 138 -151 37 -78 47 -98 68 -134 13 -22 24 -48 24 -57 1 -10 6 -18 11 -18 6 0 10 -13 10 -28 0 -15 4 -32 8 -37 5 -6 15 -30 22 -55 8 -25 17 -47 21 -50 13 -9 13 -1361 0 -1393 -6 -16 -11 -38 -11 -50 0 -45 -22 -97 -70 -171 -28 -42 -50 -81 -50 -85 0 -5 -29 -35 -64 -66 -48 -42 -68 -68 -80 -102 -29 -84 -30 -83 121 -138 144 -53 144 -53 198 -60 28 -3 91 -12 140 -20 165 -27 495 -24 606 6 26 6 44 21 63 49 l26 40 -24 52 c-14 30 -34 78 -46 108 -12 30 -28 69 -36 85 -25 54 -46 119 -55 165 -4 25 -13 68 -19 95 -47 225 -43 468 10 600 4 11 13 40 20 65 7 25 20 63 30 85 10 22 22 52 29 68 7 18 11 172 10 482 0 297 4 461 11 474 5 11 10 31 10 45 0 14 5 28 10 31 6 3 10 19 10 34 0 38 19 92 41 117 11 11 19 25 19 31 0 6 4 13 8 15 16 6 52 99 52 133 0 19 5 35 10 35 6 0 10 18 10 39 0 22 4 42 9 45 5 3 11 23 15 43 22 148 37 223 47 229 5 3 9 16 9 29 0 13 5 37 11 52 6 15 15 37 19 48 4 11 12 31 18 45 18 44 31 104 36 160 3 30 11 91 18 135 26 165 15 512 -22 678 -25 117 -31 144 -37 172 -3 17 -9 35 -13 40 -4 6 -21 48 -39 95 -18 47 -37 94 -41 105 -4 11 -22 58 -40 105 -18 47 -35 94 -40 105 -7 20 -16 51 -40 135 -16 59 -126 281 -142 288 -5 2 -8 9 -8 15 0 7 -12 26 -26 42 -14 17 -33 42 -41 56 -17 29 -280 292 -358 359 -68 58 -191 168 -233 208 -19 17 -36 32 -39 32 -5 0 -90 66 -103 80 -10 10 -290 198 -310 207 -7 4 -42 23 -75 44 -137 83 -310 151 -417 164 -27 4 -48 10 -48 14 0 5 -28 11 -62 15 -76 8 -150 21 -288 51 -58 13 -121 26 -140 30 -46 9 -230 74 -355 125 -80 32 -107 40 -137 35 -26 -5 -44 -2 -60 9 -38 27 -191 22 -283 -9 -115 -39 -392 -79 -718 -105 -84 -6 -183 -22 -255 -39 -242 -60 -307 -73 -341 -68 -37 5 -51 11 -256 117 -214 111 -220 114 -315 139 -149 39 -232 63 -268 78 -20 9 -86 24 -147 34 -60 9 -150 24 -200 33 -49 8 -117 17 -150 19 -33 2 -73 9 -88 16 -16 6 -39 11 -53 11 -70 0 -133 61 -194 185 -66 138 -156 248 -246 301 -40 24 -43 24 -160 14 -65 -5 -225 -12 -354 -16 -129 -3 -242 -8 -250 -11 -8 -4 -23 -5 -34 -4 -35 5 -168 -77 -278 -171 -31 -26 -60 -48 -65 -48 -10 0 -82 -87 -117 -140 -22 -34 -23 -35 -82 -32 -56 3 -60 2 -82 -27 -12 -17 -29 -31 -36 -31 -8 0 -16 -7 -20 -15 -3 -8 -12 -12 -19 -9 -9 3 -16 -3 -20 -15 -8 -33 -74 -28 -155 11 -77 37 -262 157 -262 170 0 5 -8 12 -17 16 -29 11 -123 83 -123 93 0 5 -4 9 -10 9 -9 0 -17 6 -78 56 -19 16 -27 35 -33 80 -12 91 -70 131 -117 81z"/> </g> </svg>