<?xml version="1.0" encoding="UTF-8"?>
<svg enable-background="new 0 0 628.3 445.9" version="1.1" viewBox="0 0 628.3 445.9" xml:space="preserve" xmlns="http://www.w3.org/2000/svg">
<path d="m37 110.5c19.2-2.5 19.6-0.7 19.6-0.7s-1.9 7.8-4.8 8.2-9.2-6.3-9.2-6.3c-0.8 1.2 0.8 4.4 0.8 4.4-2.7 0-5.4-3.3-5.4-3.3-1.7 3.2 5.9 10.4 5.9 10.4-1.2 1.5-1.2 12.6 5.4 15.9s15.6-0.9 19.3-7.2c3.6-6.3 11.1-9 11.1-9 8.4 6 23.8 3 23.8 3s1.5 7.8 13.5 13.5 16.5 26.2 16.5 26.2c1.8 37.6 19.3 43.3 19.6 45.7s15.3 83 15.3 83l-4.8 9.6c-12.2 1.3-13.8 3.3-15.3 7.5-3 8.4 2.4 12.3 2.4 12.3s-2.1 0.6 4.5 5.4 36.7 0 39.1-1.5 5.7-31 3.3-57.8 9.9-58.4 9.9-58.4 40 5.1 67.4 3 95-22 99.6-22 18 43.6 18 43.6c6.6 19.3 17.1 40.9 22 52.3s-16.5 31-16.5 31c-25 0-18.6 17.7-18.6 17.7h35.8s6.9-10.5 11.1-12 25-35.8 25-35.8 2.4-9-2.4-13.5-6.6-20.8-6.6-20.8 13.2 13.2 24.7 34.9c11.4 21.7-0.9 33.4-0.9 33.4-21-2.2-15.6 15-15.6 15l28.9-1.2s6-9.9 13.2-18.6 11.1-34 9.6-40.3-3.9-8.1-11.7-19.3c-7.8-11.1-7.2-48.1-8.1-64.7-0.9-16.5 1.2-48.1 3-46.9s6.9 37.3 6.9 37.3c4.8 44.8 37.6 60.8 37.6 60.8s15 12.9 42.4 7.8 44.5-29.8 44.5-29.8 7.5-7.8 2.7-13.2-11.4 2.7-14.4 4.2-15 14.7-18.9 17.7-26.2 10.5-48.1 0c-22-10.5-25.3-42.1-25.3-50.2s-2.4-35.5-9.6-59.6-35.2-33.7-44.2-37.3-75.5-12-75.5-12-111 2.1-128.1-2.4-41.8-4.5-41.8-4.5c-16.1-7.4-54.1-25.3-60.8-26.8-6.6-1.5-46.6-6.6-46.6-6.6s-1.2-3.6-3.3-4.8-7.8 2.7-7.8 2.7-1.5-3.3-3.9-5.7-6-0.9-9 0-3.6 8.4-3.6 8.4 6.3-1.8-7.5 0-37.3 24.1-38.2 27.4 0 5.1 0 5.1-21.7 16.8-20.5 20.8c1.2 3.9 4.8 8.4 4.8 8.4s3.9 17.7 19.8 15.6z"/>
</svg>
