<?xml version="1.0" encoding="utf-8"?>
<!-- Generator: Adobe Illustrator 21.0.0, SVG Export Plug-In . SVG Version: 6.00 Build 0)  -->
<svg version="1.1" id="Ebene_1" xmlns="http://www.w3.org/2000/svg" xmlns:xlink="http://www.w3.org/1999/xlink" x="0px" y="0px"
	 viewBox="0 0 277 197.1" style="enable-background:new 0 0 277 197.1;" xml:space="preserve">
<style type="text/css">
	.st0{fill:#542F1C;}
</style>
<g transform="translate(-238.63 -436.23)">
	<path class="st0" d="M243.5,480l-11.8-4.6l-4.7,1.2l-3.1,8.6l-10.3-7.2l-1.8,2.1l0.4,10.6l8,10.3l-2,15.6l0.6,23.5l3.6,4.3
		l-0.9,29.3l5.8,1.5l11.8-2.9l-0.2,6.6l5.1-1.5l10-9.4l3-12.3l17.5-0.8l9.1-18l18.2-4l-2.1,9l-1.7,11.7l-16.2,8.5l-14.6,8.6
		l-15.5,8.2l-8.1,13.5l1.2,23.8L259,616l2-7.2l5.8-6.4l21.4-11.7l24.3-2.5l22.3-6l13.9-4.4l15.5,34.6l-4.3,15.5l-15,2.3l-6.7,5.4
		l-4.4,4.9l4,6.9l9.7,1.8l26.5-1l5.7-0.8l1.9-6.4l10.8-14.6l6.4-9l1.8-20.3l3.1-12.9l-1.1-21.2l-0.6-5l7.1,2.3l11.9,4l8.6-0.2
		l10.2,0.2l-2.7,8l-5.4,13l-2.4,20.2l-0.3,10.9l2.1,5.8l-1.2,6.2l-1.1,4.5l-5.9,3.8l-6.4,2.1l-5.7,0.8l-3,3.7l-0.1,4.6l2.7,2.5
		l7.1,1.6l29.3,0.6l15.4-2.6l4.7-8.2l1.8-9.7l12.5-14.4l6.2-7l-2.5,6.4l0.6,8.3l7.1,5.2l0.3,3.7l-8.6,0.6l-6.8,2.4l-4.7,4.2
		l-2.7,1.1l4.2,5.3l5.4,2.4l9.1,1.4l8.4-1.6l16.7-2.8l17.7-10l0.6-11.2l-5.4-21.9l0.9-6.5l0.1-20.8l5.2-14.1l9.9-38.4l-1.9-27.5
		L527.8,467l-24.7-23.6l-36-21.9l-37.2-4.5l-32.7,5.1l-25,7.1l-35.4-2.7l-24.7,7.7l-35.5,13.7l-24.9,21.3L243.5,480z"/>
</g>
</svg>
