<?xml version='1.0' encoding='utf-8'?>
<svg xmlns="http://www.w3.org/2000/svg" version="1.1" width="600px" height="976px" viewBox="0 0 600 976"> <g id="layer1"> <g style="fill:rgb(0,0,0); fill-opacity:1.0; stroke-linejoin: miter"> <path d="M411.28387,353.93628C410.96863,354.0652,410.56744,354.33746,410.4098,354.52374C410.12323,354.8676,409.97992,354.89624,408.30347,354.9679C406.52673,355.0539,406.49805,355.06824,405.16553,355.7273C403.7613,356.42944,402.87292,357.2605,401.9702,358.69336C401.38275,359.63904,400.66626,360.3985,399.57733,361.22955C398.80353,361.81702,398.40234,362.01764,397.5426,362.21826C396.38202,362.49048,396.38202,362.49048,393.80286,361.86C392.35565,361.50183,390.63617,361.3012,388.85944,361.27258C386.6958,361.25818,385.80743,361.4015,382.3399,362.40454C381.23657,362.73407,380.14758,362.992,379.904,362.992C379.67474,362.992,378.98694,362.86304,378.39948,362.70544C376.86633,362.3042,375.3045,362.3329,373.72833,362.79138C371.95157,363.2929,370.04584,364.16693,368.5127,365.1413C367.59564,365.72876,366.79324,366.10132,365.74725,366.4309C364.94482,366.68878,364.15674,366.97534,363.99915,367.07568C363.54062,367.36224,359.15604,368.9098,356.26166,369.81244C352.52185,370.98743,350.47284,371.6609,349.74207,371.99042C348.0656,372.7212,346.11694,374.4406,345.60107,375.62988C344.4548,378.32373,345.84467,381.54767,349.08295,383.68262C350.53015,384.6427,351.24658,384.9436,353.32428,385.47375C354.227,385.703,355.3446,386.0039,355.80313,386.1328C356.2473,386.26184,356.70584,386.34778,356.7918,386.3191C356.9781,386.24744,356.16135,385.9179,353.53918,384.98657C352.52185,384.614,351.31824,384.12683,350.88837,383.88324C349.2549,382.9662,347.3062,380.88855,347.3062,380.0575C347.3062,379.5846,347.7504,378.83954,348.22327,378.53864C349.2406,377.86517,350.64478,377.80786,361.20505,377.95117C364.8589,378.00848,365.53232,378.10876,366.26306,378.73926C366.50665,378.95416,367.16577,379.38403,367.71027,379.6706C368.57,380.15778,368.8709,380.24377,370.00287,380.3297C371.42142,380.44434,371.95157,380.60193,373.45612,381.37573C374.7027,382.00616,375.37616,382.651,375.10388,382.98053C375.0036,383.09515,374.84595,383.19543,374.76,383.19543C374.48773,383.19543,372.39575,384.3131,371.82263,384.75732C370.87692,385.50238,369.74493,386.03253,368.61298,386.24744C368.01117,386.37646,367.20877,386.62,366.83624,386.80627C366.2774,387.07855,366.1198,387.26477,365.7759,387.9956C365.56097,388.46838,365.08813,389.2135,364.72992,389.64337C364.3717,390.07324,364.0708,390.56042,364.0708,390.71802C364.0708,390.89,363.9848,391.10486,363.89886,391.2052C363.7412,391.3628,363.7699,391.39148,364.0421,391.31982C364.472,391.21954,364.44333,391.29114,363.81287,392.06494C362.60925,393.5121,362.35135,394.7301,362.99615,395.93372C363.1824,396.29187,363.54062,397.06567,363.79852,397.6388C364.05646,398.19763,364.34302,398.74207,364.44333,398.82806C364.55798,398.91406,364.64392,399.11462,364.64392,399.25793C364.64392,399.57312,364.95917,399.67346,365.79022,399.65918C366.14844,399.64478,366.77893,399.64478,367.19446,399.64478C367.59564,399.64478,367.9395,399.6018,367.9395,399.55884C367.9395,399.50153,368.1831,399.4442,368.484,399.42987C368.7706,399.41553,369.28644,399.35828,369.6303,399.31525C370.03152,399.2436,370.30377,399.27222,370.44705,399.3869C370.61902,399.53015,370.662,399.51587,370.662,399.27222C370.662,398.75647,370.5044,398.52716,369.9599,398.25488C369.6733,398.0973,369.3294,397.85376,369.1718,397.68176C369.0285,397.52417,368.68463,397.35217,368.4267,397.29492C368.15448,397.25195,367.89655,397.13733,367.83923,397.05127C367.68164,396.7934,367.6673,394.37183,367.81058,393.4405C368.28345,390.5891,368.5127,390.15918,369.84528,389.70068C370.53302,389.4571,372.83997,389.34247,373.04056,389.5431C373.08356,389.57172,372.89728,389.95862,372.63934,390.37415C372.05188,391.3628,372.05188,391.9933,372.63934,393.15393C373.28412,394.4292,373.67102,395.7044,373.84296,397.12292C373.97192,398.2119,373.95758,398.46985,373.74268,398.98572C373.42743,399.7738,373.4131,400.70514,373.714,401.1493C374.04358,401.65082,375.4048,402.29565,376.1499,402.29565C376.938,402.29565,377.08124,402.20966,377.22455,401.63647C377.3105,401.30695,377.4251,401.19232,377.62573,401.20667C378.5141,401.3213,379.76074,401.56482,379.99,401.67944C380.41986,401.9231,381.92438,401.85144,382.1966,401.5935C382.4115,401.36426,382.59778,401.37854,383.1853,401.6222C383.42883,401.70813,383.44318,401.67944,383.37152,401.2926C383.3142,400.9917,383.35724,400.79114,383.4862,400.6765C383.75842,400.4472,384.66113,400.46155,384.9477,400.6908C385.14832,400.8628,385.16266,400.8484,385.06232,400.5332C384.90472,400.00305,384.28857,399.41553,383.7871,399.3009C383.54352,399.25793,383.02765,399.07166,382.62646,398.88538C382.13928,398.67047,381.5948,398.5558,380.92133,398.5415C379.64606,398.51282,378.5428,397.96838,377.64008,396.93665C376.5511,395.69006,375.66272,392.92468,376.0639,392.03625C376.57977,390.91864,376.938,390.33118,377.4538,389.64337C377.9696,388.96997,378.18457,388.82666,378.9583,388.55438C380.52014,388.0099,381.09326,387.3651,381.22223,385.9179C381.27954,385.3161,381.46582,384.85754,381.9817,383.98352C382.3542,383.3531,382.78406,382.57935,382.9417,382.2641C383.2569,381.64795,383.1996,381.6623,385.27728,381.2611C386.79608,380.9602,388.67316,380.3297,390.4356,379.54163C392.25537,378.7249,392.6709,378.63892,393.05774,379.01147C393.22968,379.16907,393.74554,379.46997,394.1897,379.68494C394.71985,379.92853,395.20703,380.30103,395.53662,380.70227C395.85187,381.0891,396.1814,381.33276,396.36768,381.33276C396.52527,381.33276,396.88348,381.46167,397.14142,381.61926C397.7146,381.9632,397.74323,381.76257,397.2417,381.01746C397.04114,380.73096,396.88348,380.43005,396.88348,380.37268C396.88348,380.31543,396.5683,380.0575,396.19574,379.82825C395.82318,379.5846,395.55096,379.32672,395.59393,379.25507C395.6369,379.16907,396.03815,379.11182,396.49664,379.11182C397.4853,379.1261,397.49963,378.95416,396.49664,378.45264L395.76587,378.08008L396.49664,377.9082L397.21307,377.75055L398.0155,378.5243C398.6316,379.0974,399.0185,379.34106,399.60596,379.51294C400.75226,379.82825,401.56897,379.94287,402.54333,379.91418C403.58936,379.8855,404.19116,380.01453,404.19116,380.24377C404.19116,380.47302,405.15118,381.51904,405.23712,381.37573C405.28015,381.31836,405.29443,380.94586,405.28015,380.55896C405.25146,379.98584,405.1798,379.79956,404.85028,379.54163C404.5064,379.2694,404.49207,379.21204,404.69263,379.1261C404.8216,379.08313,405.05084,379.04016,405.2085,379.04016C405.63837,379.04016,405.53802,378.8252,404.97925,378.56726C404.34875,378.26636,404.09082,378.26636,403.5464,378.55298C403.31708,378.6819,402.87292,378.83954,402.58636,378.89685C402.11346,378.9828,401.94153,378.93982,401.29675,378.5243C400.88123,378.25208,400.4657,378.0371,400.36536,378.0371C400.26508,378.0371,399.9212,377.93683,399.60596,377.80786C399.09015,377.5929,399.03284,377.53564,399.03284,377.04846C399.03284,376.64722,399.1618,376.38928,399.57733,375.9308C399.89252,375.5869,400.2221,374.99945,400.36536,374.5409C400.66626,373.58093,400.9815,373.36597,402.90155,372.76416C404.39172,372.30566,405.30878,371.89014,407.2575,370.80115C408.54706,370.07037,409.17755,369.56885,409.7077,368.80945L410.0086,368.39392L411.6421,368.8954C412.5448,369.182,413.64807,369.43994,414.07794,369.4972C414.95203,369.5832,415.94067,369.9414,417.27325,370.61487C419.2506,371.60352,420.32526,371.7898,421.41425,371.31696C422.51758,370.82983,423.4776,369.5832,422.73248,369.5832C422.61786,369.5832,422.53186,369.52588,422.53186,369.46857C422.53186,369.26794,421.9444,368.65186,421.80115,368.68048C421.7295,368.7091,421.67218,368.65186,421.67218,368.5515C421.67218,368.46558,421.5432,368.50854,421.38556,368.65186C421.1277,368.8954,421.099,368.8954,421.185,368.68048C421.28528,368.4226,421.02734,368.3366,420.8841,368.5802C420.74078,368.80945,420.52588,368.7378,420.62616,368.4942C420.6978,368.29358,420.66913,368.2793,420.41125,368.4226C420.12463,368.5802,420.11035,368.56586,420.1963,367.83508L420.2823,367.07568L419.96704,367.3479C419.66614,367.62012,419.66614,367.62012,419.66614,367.2906L419.66614,366.96106L419.30792,367.2906L418.9497,367.62012L418.9497,367.30493C418.9497,367.01837,418.92108,366.9897,418.72046,367.16162C418.51984,367.3192,418.5055,367.30493,418.54852,367.00403C418.5915,366.68878,418.63446,366.67444,419.78076,366.70313C420.76947,366.7318,420.95575,366.70313,420.95575,366.51685C420.95575,366.38794,420.84113,366.2876,420.68347,366.2876C420.54022,366.2876,420.16766,366.11566,419.86676,365.90076C419.56586,365.70007,419.09302,365.37054,418.82074,365.18433C418.54852,364.99805,418.047,364.76874,417.70313,364.68274L417.08698,364.5395L417.08698,363.7514C417.08698,362.71973,417.51685,361.1006,417.76044,361.18658C417.86072,361.22955,417.94672,361.17224,417.94672,361.05762C417.94672,360.6994,418.2046,360.81403,418.3479,361.22955C418.4912,361.61646,418.5055,361.63074,418.5915,361.3012C418.72046,360.90002,418.92108,360.90002,419.07867,361.3012C419.1646,361.55908,419.20764,361.5735,419.2793,361.37286C419.4082,361.01465,419.62317,361.07196,419.86676,361.5161L420.08167,361.91736L420.21063,361.55908L420.35394,361.20093L420.51154,361.6021C420.59753,361.83136,420.66913,362.07495,420.66913,362.1466C420.66913,362.43317,420.92706,362.2469,421.185,361.77405C421.51453,361.15796,421.61487,361.14355,421.74384,361.7024C421.85846,362.23254,422.07336,362.26123,422.188,361.73108C422.23096,361.5161,422.28827,361.25818,422.3313,361.15796C422.3886,360.943,422.67517,360.92865,422.67517,361.14355C422.67517,361.22955,422.74683,361.2439,422.86145,361.17224C423.21967,360.95728,423.49188,361.0003,423.6352,361.31555C423.7928,361.63074,423.7928,361.63074,423.89313,361.2439C424.00775,360.7854,424.33728,360.62775,424.52356,360.943C424.63818,361.14355,424.65253,361.14355,424.73853,360.88568C424.79584,360.72803,424.79584,360.4845,424.73853,360.35547C424.66687,360.1836,424.70984,360.14063,424.88177,360.21222C425.01074,360.25525,425.11102,360.24084,425.11102,360.16925C425.11102,360.0976,425.31165,359.72504,425.55524,359.36682C426.09973,358.5501,426.05676,358.22052,425.28302,356.75903C424.7815,355.81335,424.6955,355.7273,423.74982,355.2688C422.96173,354.88196,422.47455,354.753,421.4572,354.6527C420.75513,354.58105,419.90973,354.46643,419.59448,354.39478C419.1646,354.30884,418.92108,354.33746,418.51984,354.52374C417.81775,354.88196,416.28455,355.01086,415.10962,354.8103C414.04932,354.62402,413.77704,354.5094,413.17523,354.02222C412.7024,353.62103,412.11493,353.5924,411.28387,353.93628 Z M395.02075,378.3954C394.60522,378.63892,394.30432,378.6676,394.30432,378.48132C394.30432,378.3667,394.59094,378.2807,395.23572,378.2091C395.32166,378.1947,395.22137,378.2807,395.02075,378.3954 Z"/> </g> </g> </svg>