<?xml version="1.0" encoding="UTF-8"?>
<!DOCTYPE svg  PUBLIC '-//W3C//DTD SVG 1.1//EN'  'http://www.w3.org/Graphics/SVG/1.1/DTD/svg11.dtd'>
<svg enable-background="new 0 0 1884.3473 933.7712" version="1.1" viewBox="0 0 1884.3473 933.7712" xml:space="preserve" xmlns="http://www.w3.org/2000/svg">
	<path d="m29.448 520.89c1.5573-5.3242 1.8001-10.884 1.8009-16.299 9e-4 -6.1808 2.9593-9.498 8.0516-11.835 2.4473-1.1232 4.9814-2.2198 7.6234-2.2043 6.3205 0.037 10.674-3.48 14.44-7.7813 18.178-20.762 31.811-44.279 41.754-69.962 1.0042-2.5939 1.3181-5.4551 1.9692-8.2652 1.9293-0.3602 2.3889 1.4576 3.4283 2.3332 1.1236 0.9464 2.1112 2.0543 3.5567 3.4867 1.7357-5.7526 1.7458-11.358 2.3217-16.838 0.3621-3.4457 1.1259-4.9661 4.2389-2.1694 2.9825 2.6794 4.4187 1.9622 5.8088-1.6823 3.1988-8.387 6.7954-16.622 10.335-25.171 2.8011 1.5696 2.7653 4.9895 5.5212 7.0261 1.6107-8.0933 3.1682-15.92 4.9312-24.778 2.6743 2.985 4.7971 5.3542 7.5235 8.3973 2.1589-8.7859 4.1441-16.865 6.2842-25.575 2.29 1.9395 4.1295 3.4975 6.3631 5.3893 3.7038-8.8445 7.928-17.206 10.727-26.02 4.2322-13.326 13.569-21.596 24.713-28.928 7.6758-5.051 14.508-6.5848 23.326-2.2929 9.8783 4.8075 10.327 4.1051 17.424-4.2078 23.362-27.364 48.196-53.495 69.331-82.727 7.1291-9.8599 13.961-19.913 19.972-30.502 2.6278-4.6292-0.1562-13.176-4.878-15.584-1.4621-0.7457-2.6007-0.0547-3.8163 0.2657-21.66 5.7095-43.821 5.9977-65.989 5.9901-4.8008-0.0016-8.7699-2.9441-12.832-5.168-6.3326-3.467-11.845-8.0023-16.75-13.316-1.7063-1.8487-1.6819-3.0179 0.136-4.9219 8.5424-8.9476 8.4736-9.0135 18.986-2.5119 0.7079 0.4379 1.4431 0.8395 2.1128 1.3302 15.5 11.359 31.858 9.4357 48.216 2.6223 11.947-4.9759 21.982-13.102 31.974-21.181 9.883-7.9917 20.324-15.136 32.301-19.646 10.526-3.9639 21.217-5.6548 32.125-1.1946 2.9839 1.2201 4.8557 3.0551 5.6537 6.3306 1.2592 5.1679 2.8184 10.273 4.4717 15.332 2.1211 6.491 0.7057 6.6252 7.2097 3.1856 25.483-13.476 51.47-25.82 78.744-35.296 18.927-6.576 38.19-11.618 58.267-13.148 4.8757-0.3718 9.4794 0.0108 14.244 1.3897 42.631 12.338 85.336 12.344 128.19 0.7914 33.012-8.8995 64.578-21.918 96.752-33.205 17.082-5.9928 34.076-12.244 52.01-17.756-1.1393 2.367-2.9651 2.6195-4.3914 3.263-20.502 9.2497-41.784 16.453-62.946 23.982-14.922 5.3098-29.644 11.115-42.535 20.624-6.0923 4.4937-6.1139 4.7287-1.1533 10.649 1.8073 2.157 3.8154 4.2084 6.0029 5.9718 5.4135 4.3641 11.026 5.4017 17.454 1.5271 12.273-7.3983 24.334-15.116 36.249-23.066 24.252-16.183 50.869-25.198 80.019-26.628 1.3307-0.0652 2.6655-0.0605 3.9984-0.0623 0.3259-4e-4 0.652 0.102 2.5211 0.4182-10.118 3.682-18.97 6.911-27.827 10.124-8.8833 3.2224-17.772 6.4288-26.591 10.055 43.282-3.5405 86.102-13.301 129.91-8.9638-34.824 4.2094-69.403 9.7498-103.7 17.48 5.9048-0.5139 11.806-1.0753 17.715-1.5328 18.922-1.4651 37.74-4.6635 56.767-4.3037 22.1 0.418 43.723 4.1029 64.693 11.247 2.3258 0.7923 4.8223 1.2952 7.1679 3.3309-23.396-2.978-46.378-5.3668-69.49-6.3663-22.297-0.9643-44.312 0.0831-65.347 8.5829-4.449 1.7978-8.8515 3.7364-13.337 7.1157 6.4149 1.956 12.454 2.3196 18.444 2.8841 24.16 2.2766 48.289-0.2235 72.433-0.5432 17.799-0.2357 35.609-2.2643 53.387 0.4844 11.225 1.7356 22.127 4.5541 32.512 10.164-3.4348-0.2247-6.8699-0.4452-10.304-0.6753-3.4911-0.2339-6.9861-0.4241-10.471-0.7253-18.421-1.5919-36.844-3.1665-55.256-4.8583-4.263-0.3917-8.285 0.5279-12.311 1.5545-5.1309 1.3083-10.222 2.7718-16.112 4.382 7.3348 4.3871 14.935 6.3286 22.596 8.0672 3.7457 0.85 7.5551 1.0388 11.412 1.0202 18.331-0.0882 36.665-0.1819 54.995-0.0064 13.773 0.1319 27.117 2.8183 39.928 7.9471 1.6194 0.6483 3.5173 0.8996 4.8688 2.9536-10.204 0.7174-20.103 1.2972-29.98 2.1479-6.8084 0.5864-13.558 1.6972-19.818 4.673-1.4764 0.7018-3.4122 1.5584-3.1919 3.4306 0.2008 1.7064 2.3008 1.5031 3.6309 1.8093 56.541 13.02 113.69 20.646 171.85 19.048 49.384-1.3571 97.814-8.4458 144.76-24.356 0.7849-0.2661 1.5863-0.4974 2.3958-0.6707 0.2933-0.0628 0.6331 0.0917 1.4595 0.2352-4.6694 5.2474-9.1587 10.292-13.648 15.337 0.1499 0.2706 0.2999 0.5413 0.45 0.8119 9.8198-3.282 19.64-6.5641 30.654-10.245-4.2975 6.971-7.9141 12.838-12.333 20.006 13.62-5.7856 25.894-11 38.168-16.214 0.2355 0.255 0.4711 0.51 0.7067 0.7651-6.0203 8.5624-12.041 17.125-18.693 26.586 17.004-4.0627 32.921-7.8659 50.068-11.963-4.8132 7.0821-8.8853 13.074-13.658 20.096 29.769-0.9514 58.46-1.8684 87.152-2.7854l0.1794 0.7953c-19.077 4.5476-38.153 9.0952-57.23 13.643 0.0184 0.2953 0.0367 0.5906 0.0552 0.8859 20.538 3.1424 41.076 6.2849 61.614 9.4273 0.0367 0.2927 0.0736 0.5853 0.1105 0.878-10.733 2.7194-21.466 5.4387-32.221 8.1635 0.3378 2.0673 2.1737 1.9965 3.4199 2.5579 13.806 6.2188 27.712 12.223 41.448 18.592 9.7935 4.5408 18.215 10.24 25.247 19.324 15.994 20.663 33.609 40.078 50.703 59.882 14.914 17.278 30.019 34.314 41.048 54.59 15.576 28.633 22.177 58.79 19.263 91.395-2.6539 29.697-7.3503 59.171-9.0953 88.963-0.4905 8.3767 0.564 15.867 4.4913 23.475 14.336 27.772 31.158 53.555 55.582 73.66 9.828 8.0902 20.462 14.976 32.241 19.789 4.5276 1.8502 7.3687 4.6718 9.5854 8.7784 8.8392 16.375 14.423 33.988 19.549 51.734 4.3389 15.021 8.1172 30.206 11.983 45.36 0.6421 2.5165 1.5724 4.6415 3.3385 6.5302 14.133 15.113 30.916 25.716 51.324 30.056 4.7278 1.0054 7.9312 4.1525 11.14 7.2292 11.058 10.603 18.12 23.764 23.5 37.896 5.9203 15.549 11.548 31.21 17.548 46.728 1.8135 4.6903 0.2399 8.5315-1.9584 12.264-4.4769 7.6029-11.159 13.169-17.92 18.628-1.2026 0.971-2.2209 1.0889-3.5645 0.2217-20.555-13.266-42.317-24.721-61.328-40.3-10.686-8.7574-19.646-18.993-24.225-32.398-0.5269-1.5424-1.4865-2.4487-2.9701-3.0871-27.977-12.039-47.546-33.099-62.665-58.805-10.995-18.695-22.386-37.088-37.045-53.219-5.0537-5.5612-10.416-10.81-16.499-15.239-7.1166-5.1821-6.0288-5.5062-9.1445 2.8702-4.6067 12.385-6.4275 25.448-8.3839 38.46-1.9529 12.99-2.1913 26.239-5.9523 38.958-4.8035 16.245-13.493 29.91-27.072 41.132-0.4937-4.0985 0.7644-7.4987 1.403-10.893 3.0471-16.199 6.5265-32.359 8.1757-48.747 1.9257-19.136 1.0652-38.278-3.5548-57.082-0.8241-3.3545-1.8358-6.7225-4.4194-9.5067-8.6376 9.8557-12.713 21.534-10.138 33.896 4.2599 20.452 1.4675 40.012-3.8424 59.632-0.632 2.3349-0.749 4.8091-1.6235 7.2819-5.9658-12.699-6.7581-26.591-10.195-40.294-3.7234 10.653-7.4469 21.305-11.567 33.094-12.338-46.178-12.108-89.118 19.885-127.39-13.244-5.8791-25.971-11.622-38.775-17.19-19.181-8.3414-37.675-17.764-52.654-32.811-1.7695-1.7776-3.5323-1.2795-5.5109-0.8422-20.309 4.4894-40.604 9.0494-60.961 13.317-3.5393 0.7421-4.4443 2.1287-4.4713 5.5941-0.1808 23.331-1.267 46.675-0.7404 69.984 0.4725 20.912-7.6274 37.782-20.832 52.986-13.972 16.087-30.396 29.381-47.519 41.893-20.106 14.693-39.356 30.316-54.241 50.603-8.0853 11.02-14.238 22.936-15.989 36.684-0.3729 2.9277-1.4954 3.0632-3.8214 2.4261-6.2506-1.712-12.834-5.2628-18.725-4.3734-5.8821 0.8881-11.006 6.4097-16.6 9.6636-19.224 11.183-39.957 18.239-61.897 21.457-6.864 1.0068-13.967 0.3509-20.959 0.5345-2.9197 0.0767-3.1364-2.2117-3.4031-4.0343-0.7292-4.9844-3.3422-6.5038-8.3745-6.679-12.59-0.438-25.154-1.6342-38.858-2.6063 2.702-2.8615 4.6558-5.04 6.7239-7.1039 21.298-21.254 45.191-39.394 69.112-57.495 18.724-14.168 38.32-27.203 55.565-43.282 18.654-17.392 34.833-36.693 47.045-59.214 2.7137-5.0049 3.8881-9.7051 3.042-15.587-4.778-33.215-11.659-65.861-24.098-97.157-3.3845-8.5152-7.3885-16.739-11.353-24.992-1.8881-3.9308-3.4346-4.4371-7.3542-2.1767-33.691 19.429-69.497 33.472-107.61 41.521-31.328 6.6165-62.983 8.5524-94.921 7.095-50.803-2.3183-101.22-8.6176-151.72-14.206-38.747-4.2884-77.553-8.0323-116.59-8.5919-4.1483-0.0594-5.6909 1.292-6.9086 5.0473-6.2661 19.324-12.224 38.678-15.28 58.863-1.3994 9.2427 0.6583 16.508 7.6304 22.85 15.98 14.536 33.409 26.939 52.29 37.419 10.199 5.6607 20.454 4.7444 30.939 1.4977 11.955-3.7015 23.132-9.3418 34.712-13.978 1.866-0.7471 3.34-1.6886 4.9773 0.825 11.09 17.026 26.325 29.959 42.265 42.135 14.444 11.033 28.888 22.048 40.818 35.93 8.06 9.3789 7.9819 9.2149-2.7691 14.462-5.2184 2.547-10.581 3.6617-16.292 4.0384-23.438 1.5463-46.868 3.2206-70.298 4.8824-1.3615 0.0966-2.5364 0.0023-3.801-0.6782-40.762-21.938-84.167-37.416-127.81-52.35-22.667-7.7566-45.209-15.879-67.865-23.669-3.3709-1.1591-5.6383-3.0378-7.5249-5.9787-13.73-21.402-22.503-44.798-28.671-69.348-3.1964-12.722-7.1746-25.247-10.811-37.902-2.5181 0.22-2.9448 1.6776-3.3171 3.3393-9.2953 41.484-33.549 73.335-64.75 100.77-14.518 12.768-28.824 25.777-41.235 40.692-0.8524 1.0244-1.6384 2.1067-2.5249 3.0998-7.3189 8.1979-9.3373 17.441-7.0069 28.278 2.5511 11.863 5.869 23.595 7.1799 35.713 0.179 1.6544 0.2902 3.3162 0.4499 4.9728 0.1954 2.0275-0.6057 2.7437-2.6133 2.1385-6.5287-1.968-13.066-3.91-19.609-5.8279-1.0664-0.3126-1.638-1.0374-2.1436-1.9352-1.7092-3.0355-4.5731-3.3432-7.7037-3.5702-7.7288-0.5602-13.051 2.1434-14.942 10.089-0.0379 0.1595-0.1534 0.3001-0.1945 0.4594-3.6494 14.112-14.755 17.303-27.217 19.057-15.104 2.1259-29.466-1.6445-43.926-4.747-15.784-3.3865-31.298-7.8174-46.802-12.55 0.2333-2.3745 2.1484-3.3892 3.4742-4.7055 15.612-15.498 31.276-30.944 46.967-46.362 1.8142-1.7826 3.1111-3.7473 4.1511-6.1014 8.9348-20.226 21.533-38.276 33.901-56.448 17.806-26.163 37.662-50.892 54.461-77.761 7.4196-11.866 14.326-23.982 19.857-36.899 5.7369-13.399 4.1122-25.556-4.3843-37.184-6.746-9.2318-14.965-16.959-23.607-24.333-2.08-1.7748-2.9819-0.9504-4.2596 0.78-3.4398 4.6586-7.0117 9.2197-11.44 15.008 2.1101-13.333 5.5607-25.204 0.5131-37.473-3.5708 1.9028-7.1776 3.8248-11.921 6.3525 2.4862-5.9283 4.5551-10.862 6.9737-16.629-6.6012 0.8988-12.546 1.7082-19.65 2.6754 3.6902-4.499 6.6272-8.2451 9.7524-11.827 1.8374-2.1059 2.7673-3.5797-0.7175-4.9991-3.9649-1.6149-7.8188-6.1275-11.412-5.1793-3.3685 0.8889-3.9959 6.8026-6.093 10.361-0.3214 0.5454-0.5998 1.1162-1.3202 2.4665-1.368-3.3344-0.8535-6.0959-1.119-8.7229-0.2654-2.6272-0.4733-5.2603-0.7407-8.2775-2.6784 1.0046-3.9396 3.033-5.5363 4.564-5.7509 5.5141-5.706 5.5512-8.6664-2.1083-0.5279-1.3658-1.1389-2.6996-2.1608-5.1064-3.0401 6.192-5.6793 11.568-8.737 17.795-3.8041-5.1835-7.2868-9.7429-10.548-14.456-1.4934-2.1583-2.6203-2.3255-4.6713-0.6135-6.5225 5.4445-13.14 10.781-19.862 15.978-2.4486 1.8929-1.8734 2.8139 0.3869 4.1581 3.979 2.3664 7.8322 4.9442 11.43 8.3096-8.0654-1.9172-16.131-3.8344-25.608-6.0872 5.2201 6.7195 9.6863 12.469 14.784 19.031-7.9327-0.6684-14.783-1.2456-22.42-1.8892 2.5383 4.8429 4.748 9.0588 7.2914 13.911-8.5666 0.6735-16.471 1.295-24.376 1.9165-35.875 2.8201-71.591 7.1052-107.28 11.647-11.067 1.4083-22.117 2.9429-33.182 4.3638-3.1698 0.4072-13.034-6.9063-13.052-9.8109-0.0076-1.1974 0.8943-2.4535 1.5393-3.5941 7.3772-13.046 14.681-26.135 22.262-39.062 1.746-2.9772 1.4658-5.0103-0.5697-7.5524-2.1497-2.6848-3.4326-5.9891-8.0685-4.9316-7.6224 1.7386-14.474 5.0691-20.711 9.5731-11.303 8.1627-23.732 12.704-37.729 12.35-3.4743-0.0878-4.4643 2.4501-6.0112 4.4526-6.6923 8.6632-6.6606 8.6837-16.518 3.8293-21.205-10.442-42.409-20.888-63.626-31.308-1.4734-0.7236-3.0428-1.2516-4.5675-1.8706v-5.9991z"/>
</svg>
