<?xml version="1.0" encoding="UTF-8"?>
<svg viewBox="0 0 750 354.35449" xmlns="http://www.w3.org/2000/svg">
 <g transform="translate(590.05 -774.4)">
  <path d="m-501.84 1105.8c-10.653-17.502-17.952-58.789-17.952-58.789s-16.468-12.666-21.494-21.452c-3.7901-6.6277-3.2256-14.963-5.7244-22.178-6.0513-17.471-22.326-50.777-22.326-50.777l4.2482 32.686s-11.611-12.49-15.065-20.124c-6.5615-14.504-10.524-30.834-9.8183-46.737 0.60805-13.689 5.7296-27.131 11.984-39.323 5.7817-11.271 13.202-22.253 23.063-30.204 5.2581-4.2396 12.312-5.5684 18.346-8.603 18.812-9.4608 36.255-21.687 55.635-29.923 29.018-12.332 59.125-22.848 90.072-28.876 31.419-6.12 63.753-7.1032 95.763-7.1484 24.76-0.03503 49.363 4.036 74.089 5.3198 32.451 1.6848 65.256-1.3982 97.434 3.1251 10.353 1.4553 20.652 3.9251 30.412 7.676 5.799 2.2289 10.723 6.368 16.474 8.7164 7.442 3.0385 16.121 2.9057 23.117 6.8642 6.107 3.4554 9.276 11.027 15.528 14.212 3.5619 1.8148 8.1823 0.59567 11.751 2.3969 5.9047 2.9802 9.2028 9.6651 14.738 13.286 4.4572 2.9153 10.527 3.1046 14.557 6.5857 4.3905 3.7916 5.5618 10.297 9.4049 14.643 17.127 19.365 42.134 30.555 59.645 49.574 6.1968 6.7304 15.744 22.481 15.744 22.481 1.7319 0.35616 21.906 31.908 20.413 33.641 27.579 3.9713 25.309 22.994 10.311 35.354 0 0 11.912 19.943 16.973 30.382 5.1753 10.674 6.5154 23.386 13.643 32.868 2.5297 3.3657 8.2393 4.0091 9.8601 7.8952 2.2867 5.4827 0.01285 12.09-1.874 17.722-1.6949 5.0601-4.8639 9.5946-8.2464 13.722-5.1331 6.2648-10.627 12.926-17.959 16.366-4.5308 2.1255-14.87 2.0691-14.87 2.0691s-2.1616 1.4428-3.4022 1.5326c-15.022 1.0895-31.195-3.658-43.445-12.421-3.9131-2.7995-4.5654-8.7437-8.2375-11.853-3.4504-2.9212-8.641-3.0898-12.261-5.798-8.6792-6.4937-12.624-18.251-21.633-24.279-3.7572-2.5145-12.802-4.4792-12.802-4.4792s-3.8708 8.6227-7.8954 9.8601c-8.0729 2.4824-17.483-2.3613-24.214-7.4632-5.4948-4.165-11.208-17.385-11.208-17.385s-9.959 5.5459-15.022 4.3182c-4.8976-1.1874-8.7925-5.839-11.004-10.368-2.4719-5.0617-1.5758-16.825-1.5758-16.825l-5.9358-2.434s-1.9252 17.863-3.1169 26.766c-1.0124 7.5629-1.6708 15.208-3.4254 22.633-0.58074 2.4581-2.3392 7.2076-2.3392 7.2076s6.4328 11.323 8.0336 14.444c0.78926 1.539 3.1815 5.7669 4.0384 7.2695 0.89637 1.5719 2.9091 2.2998 3.8054 3.8719 0.85692 1.5026 0.24511 3.6706 1.3334 5.0153 11.055 8.2705 13.109 0.8933 17.343 18.206-17.136 3.9811-39.721-0.4036-59.582-1.6263 0 0-5.0021-5.4143-6.0927-8.816-0.55235-1.7233 0.54932-3.7336-0.08551-5.4282-1.3352-3.563-8.5035-7.5077-10.069-10.975-2.4119-5.3406-2.8332-21.866-3.9292-23.702s-6.7192-12.925-6.7192-12.925-6.5681 8.0966-9.2951 12.522c-0.97528 1.5826-2.1439 3.1588-2.5054 4.9822-0.64055 3.2313 2.5302 12.903 2.0882 16.167-0.1405 1.0372-1.2315 1.924-1.0579 2.9562 0.34205 2.0346 3.3336 2.835 3.8765 4.8255 0.25797 0.9451-0.78819 1.9999-0.42203 2.9087 1.1242 2.7914 4.246 4.672 7.1269 5.5418 7.3481-0.973 9.0632 3.6776 13.737 12.721l-11.763 0.878c-8.9216 1.1759-17.816-0.7798-26.671-1.8453-9.1783 3.9815-12.803 3.8428-21.124-0.3411-6.2918-3.1638-4.4226-12.138-5.2008-13.998s0.21816-7.2879-0.48898-10.833c-0.69089-3.4641-4.7209-12.748-4.973-16.271-0.52111-7.2797 5.2815-14.179 4.4738-21.433-0.23798-2.1385-2.2908-3.7572-2.6763-5.8744-0.53826-2.9569 0.60734-8.9964 0.60734-8.9964l-14.671 0.456s-30.35 11.843-46.149 15.593c-15.75 3.7378-32.072 4.416-48.085 6.7863-13.287 1.9666-26.622 8.6667-39.819 6.1691-4.0547-0.7673-6.8639-4.7015-10.695-6.2346-13.666-5.4691-28.909-5.8335-42.961-10.22-7.7583-2.4219-22.719-8.8536-22.719-8.8536-0.42239 6.5047-0.40383 13.02-0.46006 19.535 0 0 6.4342 6.0056 9.6416 10.55 3.4877 4.9418 3.6374 13 7.2292 17.867 2.9005 3.9302 14.857 23.817 14.857 23.817-7.0894 1.8615-14.23 2.6608-21.499 3.2035-6.2327 3.7938-10.9-0.2655-17.869-0.6409l-14.045-1.7469c-6.0158-5.3579-11.13-14.487-17.116-21.804-3.4389-4.2034-7.9206-6.9027-11.1-10.258 1.989 6.8821 0.9294 11.53-1.2143 17.993l3.6673 2.2805c7.0251 0.063 11.706 6.7172 17.756 12.558-4.5933 1.3198-14.579-0.7078-19.009-1.1818-8.4371 5.6837-15.441 0.9585-25.105 0.1519 0 0-10.243 5.4459-14.304 4.4338-9.8419-2.4527-5.2238-13.498-10.497-22.162z"/>
 </g>
</svg>
