<?xml version='1.0' encoding='utf-8'?>
<svg xmlns="http://www.w3.org/2000/svg" version="1.1" id="Layer_1" x="0px" y="0px" viewBox="0 0 2655.579 1469.762" enable-background="new 0 0 2655.579 1469.762"> <g> <path d="M2600.177,417.925c-12.014-36.614-32.186-66.972-66.698-83.087c-46.806-22.888-95.443-27.381-128.636,12.771 c-33.84,40.16,3.891,60.034,12.342,44.709c2.501-4.352,13.165-30.555,33.344-36.277c10.283-3.439,53.36-3.16,80.666,25.954 c12.099,13.147,23.906,40.127,26.557,54.292c3.64,17.164,4.841,53.524-0.146,70.846c-55.991,190.392-288.138,232.534-472.03,60.066 c-89.868-81.839-115.146-125.823-167.654-181.33c-12.89-13.621-28.905-23.615-43.668-35.007 c-3.903-4.72-26.374-41.806-66.598-76.61c-228.485-179.61-501.604-50.3-815.313-87.39c-20.984-2.796-41.968-5.573-63.007-7.948 c-13.023-2.424-8.521,3.686-36.642-26.74c-11.383-12.114-23.414-24.008-37.921-32.358c-42.611-27.606-123.585-39.23-139.307-39.858 c-31.336,1.012-50.758-7.909-152.297-17.047c-4.031-0.367-5.928-9.177-14.48-15.092c-25.754-19.037-67.133,1.823-85.663,16.416 c-9.632,7.005,1.708,0.934-47.203,6.276C303.186,83.395,288.078,97.71,256.765,104.46c-32.863,8.276-39.589,15.028-52.026,13.785 c-7.217-0.886-12.991-5.691-19.276-8.916c-9.802-5.472-20.445-9.209-30.531-14.087C101.849,61.745,44.706,61.575,47.919,128.468 c0.727,37.955,27.144,58.786,31.947,71.86c2.505,7.16-0.593,12.05,8.003,24.958c6.147,9.26,22.092,16.966,26.475,20.125 c51.728,34.014-2.545,45.344,31.28,145.437c-22.415,4.314-51.675,13.675-67.849,29.763c6.202-4.373,23.676-20.884,68.315-29.142 c0.868,2.055,1.745,4.12,2.585,6.194c-9.099,4.166-18.335,8.35-26.447,14.279c8.88-4.659,17.421-10.067,26.849-13.658 c13.132,30.077,39.536,58.854,63.629,73.157c1.507,0.603,1.973,2.129,2.275,3.59c-43.613-11.283-87.584-2.809-110.85,34.861 c-9.272,8.825-18.783,18.289-23.423,30.467c5.609-10.551,13.246-19.997,22.181-27.918c-4.86,11.383-9.647,23.734-7.793,36.323 c-1.845,3.755-3.645,7.61-4.303,11.785c2.22-6.34,5.162-12.406,8.788-18.052c-0.356-0.073-1.069-0.201-1.425-0.265 c1.244-6.108,17.22-35.046,48.729-49.88c3.974-1.928,8.459-2.083,12.717-2.969c0.055-0.201,0.164-0.594,0.219-0.795 c-0.311-0.767-0.585-1.535-0.85-2.302c-5.417,3.042-11.52,4.732-17.568,6.029c0.32,1.836-0.813,3.535-2.649,1.8l0.968,1.032 c-19.891,11.436-33.842,27.514-42.498,46.39c0.274,0.877,0.557,1.763,0.84,2.667c-1.041,0.63-2.083,1.279-3.124,1.919 c0.365-11.456,3.901-22.61,8.688-32.952c3.965-9.083,35.821-19.311,37.647-19.979c-6.522-0.551-25.407,8.931-34.834,14.945 c23.107-36.447,69.502-42.988,108.694-32.056c0.594,3.051,1.325,6.075,2.101,9.09c-43.85-5.595-47.258,0.504-56.064,0.32 c-0.091,0.685-0.174,1.379-0.265,2.074c11.858-5.194,34.509-4.196,47.386-2.686l0.009,0.978c-6.97,0.356-13.822,2.348-20.829,1.827 c-3.055-0.207-24.705-0.865-25.789,1.251c8.377-0.557,16.791-0.886,25.186-0.448c-8.093,2.575-31.422,5.712-51.816,18.792 c-22.867,13.559-35.448,31.866-35.108,33.911c1.142-0.475,1.517-1.836,2.275-2.722c19.871-30.264,71.538-57.881,117.647-45.047 c0.283,1.105,0.566,2.22,0.859,3.344c-31.856,2.81-42.905,4.191-73.011,23.853c-30.43,15.596-38.181,24.239-45.76,35.72 c-6.335,9.267,1.1,2.894-27.004,22.674c7.829-3.746,14.498-9.474,21.797-14.123c-1.005,2.54-2.138,5.034-3.06,7.61 c2.403-3.362,3.051-7.984,6.541-10.515c38.028-29.555,33.191-37.964,76.902-52.118c0.612,0.402,1.224,0.813,1.836,1.233 c-18.889,5.465-25.028,15.966-32.924,19.979c-18.143,10.022-34.651,23.341-47.24,39.885l0.448,0.237 c13.082-16.215,29.434-29.8,47.797-39.657c-4.677,5.737-9.044,11.858-11.62,18.856c-3.757,8.595-17.203,13.098-32.979,36.789 c2.949-2.949,13.292-17.85,30.96-31.417c-1.252,4.394-1.425,9.108-2.85,13.411c-8.925,9.866-17.449,20.409-23.222,32.477 c6.797-11.081,14.297-21.797,23.305-31.198c0.219,1.608,0.438,3.27,0.749,4.887c0.758-4.971-4.573-4.954,20.217-23.752 c-3.334,6.824-8.606,12.479-11.748,19.422c0.151-0.122,0.292-0.251,0.437-0.377c-2.068,2.422-2.786,5.691-4.777,8.179 c-9.437,11.063-17.832,23.213-23.633,36.597c6.705-12.022,13.804-23.953,22.93-34.322c-1.389,4.668-3.115,9.282-3.736,14.151 c5.862-18.089,4.209-15.679,15.156-26.438c-1.69,6.285-3.398,12.68-3.207,19.257c0.696-4.332,2.688-19.794,6.44-22.555 c16.864-15.229,36.186-28.137,57.462-36.268c-0.929,0.742-21.452,16.974-25.406,18.609c0.74,0.457,1.489,0.904,2.247,1.361 c-22.601,23.332-35.089,55.854-35.016,88.258c0.85-3.663,0.703-7.445,1.142-11.164c5.026-50.933,38.908-88.414,59.088-93.547 c-1.137-0.321-2.571-0.854-3.872-0.734c6.53-5.015,14.179-8.764,22.344-10.01c-1.142-0.621-2.284-1.261-3.517-1.654 c-3.873,1.361-7.208,3.892-11.072,5.289c-23.661,8.935-45.613,22.373-64.259,39.465c1.014-2.722,2.266-5.335,3.188-8.094 c-0.402-0.201-1.206-0.612-1.608-0.813c0.95-0.804,1.992-1.526,3.252-1.699c4.201-7.807,7.507-11.232,30.768-23.35 c0.155-0.201,0.475-0.621,0.639-0.822c-3.727,0.649-7.528,3.974-11.456,5.372c1.096-1.16,2.302-2.183,3.636-3.06 c-0.11-0.329-0.338-0.996-0.448-1.334c0.375,0.21,1.124,0.621,1.498,0.822c3.983-2.649,8.368-4.814,13.119-5.637 c-1.398,1.078-3.526,1.571-4.586,2.896c4.476-0.311,8.176-4.933,12.762-4.111c-0.119-1.526-0.238-3.06-0.375-4.568 c-1.151,0.658-0.859,2.01-1.105,3.088c-0.685-0.009-2.046-0.018-2.731-0.027c0.1-0.347,0.311-1.051,0.42-1.407 c-7.774,3.444-15.412,7.601-23.77,9.364l3.243-1.443c-0.448-0.393-0.895-0.786-1.343-1.169c-2.147,2.32-4.495,4.531-7.427,5.819 c1.891-3.17,5.189-5.107,7.327-8.021c-4.75,2.476-7.199,8.094-12.232,10.287c-9.108,4.422-17.659,9.875-25.881,15.75 c2.916-8.866,11.169-22.145,17.796-24.894c11.648-5.5,23.615-10.552,36.158-13.594c-3.124,2.759-7.043,4.458-10.012,7.4 c3.512-1.536,19.107-13.625,22.007-9.236c-0.201-1.005-0.393-2.01-0.585-3.006c0.621-0.265,1.864-0.795,2.485-1.051l0.384-0.439 l-0.073-0.429c-4.056,1.069-7.537,4.166-11.794,5.043c-13.018,3.289-25.497,8.332-37.748,13.758 c8.998-9.3,21.523-13.767,33.509-17.796c-1.873-0.594-3.782-1.06-5.719-1.407l1.745,2.101c-2.192,0.649-4.348-0.101-6.514-0.247 c-6.313,1.407-12.187,4.239-18.335,6.185c2.055-2.074,4.76-3.197,7.281-4.549c12.317-6.554,22.23-10.933,55.032-13.091 c0.329,1.115,0.667,2.238,1.005,3.362c-1.343,0.128-2.695,0.265-4.038,0.393c0.064,0.292,0.192,0.868,0.265,1.151 c-4.07-0.753-1.602-1.183-33.482,4.394c1.252,0.475,2.512,0.95,3.773,1.443c7.144-1.781,14.37-4.33,21.843-3.472 c-1.891,0.841-3.864,1.498-5.929,1.781c0.146,0.146,0.429,0.439,0.576,0.585c2.476-0.192,4.723-1.416,7.034-2.22 c0.347-0.831,0.731-1.635,1.115-2.439c1.279,0.21,2.567,0.411,3.864,0.594c-1.425,0.311-2.832,0.713-4.074,1.48 c9.831-0.772,10.97-0.015,11.639,1.827c-7.281,0.795-14.471,2.211-21.697,3.344c-0.064,0.375-0.201,1.124-0.274,1.498 c7.4-2.375,15.265-3.106,22.967-3.892l-1.343,1.315c-31.037,4.473-43.355,16.325-49.094,18.819 c0.402,0.374,0.813,0.749,1.224,1.124c8.745-7.856,27.665-16.754,49.688-19.157c0.493,1.379,0.987,2.777,1.443,4.193 c-8.003,2.156-16.133,3.746-24.127,5.929c0.402,1.845-0.786,2.43-2.43,2.576c-0.018-0.594-0.046-1.772-0.064-2.357 c-0.375,1.48-0.722,2.978-1.124,4.458c5.308-2.476,11.282-2.887,16.983-3.892c-2.33-0.155-4.659-0.274-6.98-0.466 c6.139-2.366,12.543-3.974,19.139-4.294c0.219,2.54,2.366,4.129,3.398,6.258c-1.39,1.161-20.063,7.776-21.861,8.204 c-0.119,0.365-0.347,1.105-0.466,1.471c5.755-2.375,11.593-4.513,17.43-6.687l-0.612,2.074c2.348-1.507,5.025-5.061,8.03-2.978 c-1.946,2.448-5.463,2.695-7.555,5.024c2.677-1.078,5.216-2.457,7.774-3.809c1.188,1.242,2.393,2.485,3.599,3.727 c-4.787,1.809-9.245,4.412-14.123,5.993c0.42,0.311,0.84,0.63,1.27,0.95c1.233-0.612,3.718-1.845,4.961-2.457 c-1.124,1.096-3.362,3.289-4.476,4.385c4.403-2.786,8.24-6.514,13.237-8.295c7.628,6.166,16.718,10.277,26.137,12.863 c3.453,11.967,12.543,22.089,23.725,27.425c-1.288,2.777-2.759,5.49-3.645,8.441c1.818-2.503,2.914-5.408,4.23-8.185 c1.48,0.439,2.96,0.877,4.449,1.334c-3.334,12.854-4.65,26.1-5.289,39.337c1.828-8.509,0.528-16.12,5.838-38.972 c1.964,0.393,3.928,0.804,5.892,1.224c-2.494,12.962-3.114,33.113,0.548,45.047c-2.494-14.818-2.759-30.147,0.128-44.928 c3.097,0.347,6.194,0.694,9.3,1.069c0.758,12.251,2.074,24.456,3.124,36.679c0.359-3.743-2.38-35.202-2.54-36.688 c2.832,0.228,5.673,0.256,8.505,0.21c1.425,7.591,3.444,15.348,8.048,21.688c-3.736-6.696-6.176-14.041-7.29-21.624 c3.124-0.064,6.249-0.265,9.373-0.42c2.412,7.446,4.257,15.147,7.783,22.172c-2.604-7.363-4.997-14.799-7.062-22.327 c2.147-0.219,4.294-0.475,6.45-0.722c1.864,12.004,3.782,24.054,7.126,35.756c-2.275-11.94-4.76-23.844-6.541-35.866 c3.07-0.566,6.13-1.188,9.227-1.553c2.585-1.069,5.262-1.882,8.012-2.412c3.207-1.617,6.45-3.143,9.61-4.86 c3.654,4.011,6.769,8.596,11.109,11.931c-3.243-4.385-7.409-8.012-10.451-12.552c16.259-10.482,21.565-33.411,26.822-36.843 c3.764-2.668,6.989-5.984,10.643-8.788c0.247-0.493,0.722-1.471,0.968-1.955c3.901,0.137,6.669,2.841,9.382,5.289l-2.439-3.526 c11.419,5.682,22.071,13.511,29.937,23.597c0.301-0.347,0.594-0.694,0.904-1.032c-4.531-3.791-8.249-8.469-13.009-12.004 c-4.339-3.663-9.355-6.377-13.922-9.711c8.222,1.727,16.124,4.741,23.816,8.094c1.58,4.988,3.325,9.921,5.116,14.845 c-0.53,0.457-1.041,0.941-1.544,1.425c2.119,1.434,3.563,3.618,4.485,5.975c41.577,104.699,91.271,149.227,119.044,195.07 c6.156,11.058,1.045-7.188,13.877,63.93c10.719,51.847,55.643,185.164,65.858,214.492c2.307,8.808-5.244,56.92-6.377,64.058 c-7.604,51.514-4.3,87.359-8.715,107.406c-2.101,9.629-4.367,19.221-5.874,28.969c-4.699,29.303-9.34,28.441-15.302,62.788 c-0.694,7.674-2.768,15.119-4.659,22.574c-1.005,4.157-4.12,7.272-6.514,10.679c-13.357,16.731-12.459,12.973-24.246,17.001 c-21.251,6.83-35.194,5.481-50.044,14.672c-6.829,4.149-25.293,27.463-15.558,44.855c6.263,11.342,2.331,34.143,49.469,30.202 c6.042-0.437,15.262,6.974,41.859-0.585c3.096-1.159,14.542,4.206,22.108,4.321c29.852,0.625,31.257-3.658,38.241-7.984 c14.315,3.517,31.243,2.193,42.261-8.596c21.879,2.807,31.305-2.877,45.339-2.384c20.318,1.112,28.732,1.066,40.945-12.269 c8.03-9.652,15.824-34.689,9.062-63.135c-0.859-2.923,0.283-5.865,0.63-8.761c4.814-5.335,6.833-12.315,8.487-19.13 c1.297-5.819,4.741-10.908,5.627-16.818c2.802-15.757-10.311-49.655-15.475-66.625c3.7-2.001,5.993-5.92,6.212-10.085 c1.33-24.404-11.489-35.229-17.933-45.632c-3.883-6.34-1.16-14.114-3.828-20.811c-1.178-4.851-5.39-8.724-4.988-13.959 c-2.706-79.776-4.379-49.392,2.019-73.449c19.277-57.198,33.774-83.409,46.865-113.983c21.21-46.38,18.236-56.531,41.448-102.82 c11.764-22.396,26.368-38.47,34.358-69.064c134.578-4.392,268.611,29.602,452.535-61.007 c13.886,81.773,67.803,192.336,87.18,242.666c4.675,12.185,19.297,59.242,33.125,87.271c6.304,14.087,15.421,27.37,17.312,43.028 c1.644,11.456,4.805,23.076,2.768,34.697c-5.879,37.986-6.84,43.278-32.394,97.686c-18.554,42.216-24.598,45.193-41.694,67.201 c-15.854,17.402-14.188,13.041-44.453,19.34c-32.778,6.748-27.371,13.923-36.752,21.925c-10.418,10.281-8.797,28.29,2.795,34.039 c7.138,14.754,14.374,13.4,22.199,16.17c3.852,1.013,14.846,6.462,38.259,0.749c2.439-0.639,4.787,0.658,7.107,1.297 c6.836,2.293,23.427,1.777,30.211,0.612c3.947-0.712,7.948,0.219,11.931-0.073c21.002-1.605,35.862,3.351,51.725-7.308 c11.778-9.531,9.792-31.386,15.841-48.92c55.861-177.587,131.599-206.304,105.825-265.733c-21.739-51.395-12.8-167.42-5.627-194.96 c41.563,65.007,71.012,99.915,106.995,158.546c21.046,34.49,44.979,55.732,50.857,102.92c1.951,16.128-6.204,51.51-6.276,68.607 c-0.231,21.976-10.288,62.879-14.041,70.444c-9.469,19.842-11.307,33.488-16.636,39.027c-4.682,5.414-23.427,7.92-41.183,14.461 c-6.695,2.583-19.099,6.309-22.784,24.949c-8.866,19.812,2.932,27.503,4.65,31.91c5.453,12.009,24.42,14.991,37.501,14.169 c5.417-0.731,10.04,3.179,15.421,3.134c10.698,0.384,22.236-0.247,31.453-6.304c7.511,6.844,24.299,11.269,40.762,8.03 c2.923-0.439,5.536-2.796,8.596-1.973c25.599,5.954,38.75-5.596,46.792-25.388c13.364-35.238,0.996-89.73,17.696-210.892 c3.764-25.406,6.386-51.049,12.525-76.025c12.678-52.073-31.144-36.95-44.261-134.008 c-16.931-124.776-20.119-102.41-14.571-170.048c9.791-111.269,77.905-182.636,83.279-265.413 c46.569,42.85,229.495,265.362,463.653,224.322c32.553-6.278,71.796-19.123,100.645-39.063 c78.615-52.619,116.198-133.989,125.311-178.516C2610.737,489.242,2606.807,441.385,2600.177,417.925z M199.001,487.894 c6.176-0.895,12.433-2.046,18.691-1.507c0.594,1.992,1.197,3.992,1.827,5.993C212.796,490.314,205.762,489.693,199.001,487.894z M100.439,560.657c11.626-21.093,28.322-27.876,34.815-32.486c0.502,0.384,0.996,0.776,1.498,1.188 C129.353,534.153,118.629,546.832,100.439,560.657z M150.547,558.337c-6.965,12.696,1.993,2.324-11.538,16.279 c0.47-1.123,1.367-3.288,1.869-4.51c3.498-3.385,5.148-8.14,8.116-11.943C149.514,558.182,150.035,558.237,150.547,558.337z M153.05,551.403c-0.247-1.261,0.265-1.845,1.553-1.754C154.804,550.919,154.283,551.504,153.05,551.403z M160.906,538.33 l0.219,1.69c0.968-1.188,1.937-2.366,2.914-3.545c0.429,0.859,0.868,1.727,1.343,2.585c2.01-4.294,6.605-6.367,10.981-7.345 c-3.956,3.207-8.249,5.975-12.159,9.245c-0.42-0.685-0.84-1.352-1.27-2.01c-1.699,3.179-4.157,5.874-6.705,8.405 c0.32-0.968,0.95-2.914,1.261-3.883c-9.023,11.77-8.002,6.705-25.707,24.41c0.904-4.449,1.37-9.099,3.261-13.274 C142.983,548.206,151.881,543.054,160.906,538.33z M220.497,502.949c1.197-0.731,1.918-0.512,2.165,0.667 C221.456,504.31,220.735,504.091,220.497,502.949z M435.363,516.022c-5.253-2.741-10.743-4.979-16.014-7.637 c4.988,0.429,9.839,1.708,14.726,2.768C434.514,512.769,434.934,514.386,435.363,516.022z M421.761,477.634 c2.019-0.996,4.074-1.909,6.148-2.777c0.192,2.138,0.429,4.275,0.694,6.413c-2.649,0.1-5.289,0.283-7.93,0.429 C421.021,480.339,421.386,478.977,421.761,477.634z M420.463,482.595c2.795-0.21,5.6-0.365,8.405-0.402 c0.11,0.84,0.311,2.512,0.42,3.344c-3.298,0.101-6.587,0.338-9.885,0.384C419.751,484.806,420.107,483.7,420.463,482.595z M418.015,489.62c0.247-0.621,0.749-1.864,0.996-2.485c3.371-0.868,6.888-0.566,10.341-0.649c-0.11,1.864,0.466,3.654,1.051,5.399 c-4.54-1.032-9.135,0.841-13.685-0.256c2.293-0.914,4.741-1.041,7.171-1.023c1.791-0.74,3.508-1.644,5.244-2.512 C425.415,488.579,421.779,489.593,418.015,489.62z M417.759,492.991c4.084-0.091,8.259-0.384,12.306,0.155l1.032,0.822 c-5.006,0.247-10.031,0.183-15.037,0.091C416.489,493.786,417.339,493.256,417.759,492.991z M416.078,495.111 c4.942-0.055,9.885-0.502,14.818-0.055c0.32,1.763,0.63,3.526,0.95,5.308c-5.92-0.411-11.83,0.356-17.732-0.018 C414.772,498.6,415.43,496.855,416.078,495.111z M432.632,503.323c-2.978-0.557-5.975-1.06-8.971-1.516 c2.567-1.133,5.445-1.078,8.185-0.758C432.038,501.615,432.431,502.757,432.632,503.323z M413.456,501.971 c2.914-0.63,5.911-0.128,8.861-0.082c1.562,0.667,3.179,1.206,4.787,1.791c-4.915-0.265-9.83,0.009-14.736,0.201 C412.643,503.406,413.192,502.446,413.456,501.971z M432.714,504.438c0.429,1.928,0.84,3.855,1.279,5.801 c-7.555-1.791-15.211-3.042-22.866-4.294C412.621,504.145,415.199,504.581,432.714,504.438z M411.081,506.758 c5.883,2.129,12.068,3.746,17.376,7.171c-6.495-1.242-12.908-2.896-19.431-3.965C409.702,508.887,410.387,507.818,411.081,506.758z M405.408,514.578c1.014-1.279,2.046-2.549,3.088-3.809c9.263,1.516,18.508,3.444,27.333,6.678 c0.621,2.732,1.389,5.427,2.165,8.131C416.755,516.626,412.575,518.464,405.408,514.578z"/> <path d="M220.497,518.972c2.165,0.457,4.348,0.868,6.568,1.005c0.639,0.63,1.297,1.252,1.992,1.864 c-0.183-1.325-0.384-2.631-0.585-3.937C225.814,518.278,223.146,518.561,220.497,518.972z"/> <path d="M413.557,524.371c-2.64-2.293-5.691-4.129-9.008-5.207C407.381,521.165,410.396,522.928,413.557,524.371z"/> <path d="M415.649,523.878c0.274-1.261-0.219-1.772-1.498-1.553C413.886,523.558,414.388,524.079,415.649,523.878z"/> <path d="M177.944,523.001c-1.188,0.329-3.207,1.051-3.088,2.567C175.843,526.171,178.995,524.344,177.944,523.001z"/> <path d="M463.3,598.122c-6.245-39.909-40.404-67.146-47.303-74.619l0.831,2.43c-1.041-0.457-2.083-0.895-3.124-1.315 c2.914,2.531,6.532,4.312,8.807,7.528c19.474,25.919,21.197,53.487,23.076,59.49c-3.647-33.087-15.995-49.343-19.879-56.722 l0.393-0.146l0.174,0.365l-0.384,0.128C429.421,536.418,452.959,558.262,463.3,598.122z"/> <path d="M218.314,539.655c1.827-0.256,4.358-1.434,5.107-3.133C221.584,536.713,219.026,537.919,218.314,539.655z"/> <path d="M179.762,551.75c0.219-0.539,0.667-1.626,0.886-2.165c-25.251,18.966-43.618,58.246-44.015,82.365 C143.424,585.44,170.777,557.539,179.762,551.75z"/> <path d="M355.464,569.3c0.335,1.469,14.247,33.37,14.653,34.295C368.662,598.118,359.178,575.567,355.464,569.3z"/> <path d="M347.133,572.013c1.422,5.549,9.767,29.281,10.862,42.453C358.776,606.261,349.619,575.454,347.133,572.013z"/> </g> </svg>